<mxfile host="app.diagrams.net" modified="2023-06-08T01:32:36.473Z" agent="Mozilla/5.0 (Windows NT 10.0; Win64; x64) AppleWebKit/537.36 (KHTML, like Gecko) Chrome/114.0.0.0 Safari/537.36" etag="iDr2ZsJjQrcEL-4MPMQC" version="21.3.7" type="device">
  <diagram name="페이지-1" id="BOYUgyu2LTXanRcQRy_w">
    <mxGraphModel dx="1444" dy="811" grid="1" gridSize="10" guides="1" tooltips="1" connect="1" arrows="1" fold="1" page="1" pageScale="1" pageWidth="4681" pageHeight="3300" math="0" shadow="0">
      <root>
        <mxCell id="0" />
        <mxCell id="1" parent="0" />
        <mxCell id="5X9pGxLRDHoMHx6hEtCc-12" style="edgeStyle=orthogonalEdgeStyle;rounded=0;orthogonalLoop=1;jettySize=auto;html=1;entryX=0;entryY=0.5;entryDx=0;entryDy=0;" edge="1" parent="1" source="5X9pGxLRDHoMHx6hEtCc-1" target="5X9pGxLRDHoMHx6hEtCc-2">
          <mxGeometry relative="1" as="geometry" />
        </mxCell>
        <mxCell id="5X9pGxLRDHoMHx6hEtCc-1" value="사용자" style="shape=umlActor;verticalLabelPosition=bottom;verticalAlign=top;html=1;outlineConnect=0;" vertex="1" parent="1">
          <mxGeometry x="40" y="90" width="70" height="110" as="geometry" />
        </mxCell>
        <mxCell id="5X9pGxLRDHoMHx6hEtCc-20" style="edgeStyle=orthogonalEdgeStyle;rounded=0;orthogonalLoop=1;jettySize=auto;html=1;entryX=0;entryY=0.5;entryDx=0;entryDy=0;" edge="1" parent="1" source="5X9pGxLRDHoMHx6hEtCc-2" target="5X9pGxLRDHoMHx6hEtCc-13">
          <mxGeometry relative="1" as="geometry" />
        </mxCell>
        <mxCell id="5X9pGxLRDHoMHx6hEtCc-2" value="시작화면" style="ellipse;whiteSpace=wrap;html=1;" vertex="1" parent="1">
          <mxGeometry x="210" y="80" width="140" height="60" as="geometry" />
        </mxCell>
        <mxCell id="5X9pGxLRDHoMHx6hEtCc-4" value="최신영화" style="swimlane;fontStyle=0;childLayout=stackLayout;horizontal=1;startSize=30;horizontalStack=0;resizeParent=1;resizeParentMax=0;resizeLast=0;collapsible=1;marginBottom=0;whiteSpace=wrap;html=1;" vertex="1" parent="1">
          <mxGeometry x="210" y="150" width="140" height="180" as="geometry" />
        </mxCell>
        <mxCell id="5X9pGxLRDHoMHx6hEtCc-5" value="영화명" style="text;strokeColor=none;fillColor=none;align=left;verticalAlign=middle;spacingLeft=4;spacingRight=4;overflow=hidden;points=[[0,0.5],[1,0.5]];portConstraint=eastwest;rotatable=0;whiteSpace=wrap;html=1;" vertex="1" parent="5X9pGxLRDHoMHx6hEtCc-4">
          <mxGeometry y="30" width="140" height="30" as="geometry" />
        </mxCell>
        <mxCell id="5X9pGxLRDHoMHx6hEtCc-6" value="감독" style="text;strokeColor=none;fillColor=none;align=left;verticalAlign=middle;spacingLeft=4;spacingRight=4;overflow=hidden;points=[[0,0.5],[1,0.5]];portConstraint=eastwest;rotatable=0;whiteSpace=wrap;html=1;" vertex="1" parent="5X9pGxLRDHoMHx6hEtCc-4">
          <mxGeometry y="60" width="140" height="30" as="geometry" />
        </mxCell>
        <mxCell id="5X9pGxLRDHoMHx6hEtCc-7" value="출연진" style="text;strokeColor=none;fillColor=none;align=left;verticalAlign=middle;spacingLeft=4;spacingRight=4;overflow=hidden;points=[[0,0.5],[1,0.5]];portConstraint=eastwest;rotatable=0;whiteSpace=wrap;html=1;" vertex="1" parent="5X9pGxLRDHoMHx6hEtCc-4">
          <mxGeometry y="90" width="140" height="30" as="geometry" />
        </mxCell>
        <mxCell id="5X9pGxLRDHoMHx6hEtCc-11" value="개봉일자" style="text;strokeColor=none;fillColor=none;align=left;verticalAlign=middle;spacingLeft=4;spacingRight=4;overflow=hidden;points=[[0,0.5],[1,0.5]];portConstraint=eastwest;rotatable=0;whiteSpace=wrap;html=1;" vertex="1" parent="5X9pGxLRDHoMHx6hEtCc-4">
          <mxGeometry y="120" width="140" height="30" as="geometry" />
        </mxCell>
        <mxCell id="5X9pGxLRDHoMHx6hEtCc-10" value="영화설명" style="text;strokeColor=none;fillColor=none;align=left;verticalAlign=middle;spacingLeft=4;spacingRight=4;overflow=hidden;points=[[0,0.5],[1,0.5]];portConstraint=eastwest;rotatable=0;whiteSpace=wrap;html=1;" vertex="1" parent="5X9pGxLRDHoMHx6hEtCc-4">
          <mxGeometry y="150" width="140" height="30" as="geometry" />
        </mxCell>
        <mxCell id="5X9pGxLRDHoMHx6hEtCc-23" style="edgeStyle=orthogonalEdgeStyle;rounded=0;orthogonalLoop=1;jettySize=auto;html=1;entryX=0;entryY=0.5;entryDx=0;entryDy=0;" edge="1" parent="1" source="5X9pGxLRDHoMHx6hEtCc-13" target="5X9pGxLRDHoMHx6hEtCc-21">
          <mxGeometry relative="1" as="geometry" />
        </mxCell>
        <mxCell id="5X9pGxLRDHoMHx6hEtCc-13" value="영화검색" style="ellipse;whiteSpace=wrap;html=1;" vertex="1" parent="1">
          <mxGeometry x="430" y="80" width="140" height="60" as="geometry" />
        </mxCell>
        <mxCell id="5X9pGxLRDHoMHx6hEtCc-14" value="영화검색" style="swimlane;fontStyle=0;childLayout=stackLayout;horizontal=1;startSize=30;horizontalStack=0;resizeParent=1;resizeParentMax=0;resizeLast=0;collapsible=1;marginBottom=0;whiteSpace=wrap;html=1;" vertex="1" parent="1">
          <mxGeometry x="415" y="150" width="170" height="180" as="geometry" />
        </mxCell>
        <mxCell id="5X9pGxLRDHoMHx6hEtCc-15" value="제목으로 검색하기" style="text;strokeColor=none;fillColor=none;align=left;verticalAlign=middle;spacingLeft=4;spacingRight=4;overflow=hidden;points=[[0,0.5],[1,0.5]];portConstraint=eastwest;rotatable=0;whiteSpace=wrap;html=1;" vertex="1" parent="5X9pGxLRDHoMHx6hEtCc-14">
          <mxGeometry y="30" width="170" height="30" as="geometry" />
        </mxCell>
        <mxCell id="5X9pGxLRDHoMHx6hEtCc-16" value="장르로 검색하기" style="text;strokeColor=none;fillColor=none;align=left;verticalAlign=middle;spacingLeft=4;spacingRight=4;overflow=hidden;points=[[0,0.5],[1,0.5]];portConstraint=eastwest;rotatable=0;whiteSpace=wrap;html=1;" vertex="1" parent="5X9pGxLRDHoMHx6hEtCc-14">
          <mxGeometry y="60" width="170" height="30" as="geometry" />
        </mxCell>
        <mxCell id="5X9pGxLRDHoMHx6hEtCc-17" value="감독으로 검색하기" style="text;strokeColor=none;fillColor=none;align=left;verticalAlign=middle;spacingLeft=4;spacingRight=4;overflow=hidden;points=[[0,0.5],[1,0.5]];portConstraint=eastwest;rotatable=0;whiteSpace=wrap;html=1;" vertex="1" parent="5X9pGxLRDHoMHx6hEtCc-14">
          <mxGeometry y="90" width="170" height="30" as="geometry" />
        </mxCell>
        <mxCell id="5X9pGxLRDHoMHx6hEtCc-18" value="주연으로 검색하기" style="text;strokeColor=none;fillColor=none;align=left;verticalAlign=middle;spacingLeft=4;spacingRight=4;overflow=hidden;points=[[0,0.5],[1,0.5]];portConstraint=eastwest;rotatable=0;whiteSpace=wrap;html=1;" vertex="1" parent="5X9pGxLRDHoMHx6hEtCc-14">
          <mxGeometry y="120" width="170" height="30" as="geometry" />
        </mxCell>
        <mxCell id="5X9pGxLRDHoMHx6hEtCc-19" value="내용(키워드)로 검색하기" style="text;strokeColor=none;fillColor=none;align=left;verticalAlign=middle;spacingLeft=4;spacingRight=4;overflow=hidden;points=[[0,0.5],[1,0.5]];portConstraint=eastwest;rotatable=0;whiteSpace=wrap;html=1;" vertex="1" parent="5X9pGxLRDHoMHx6hEtCc-14">
          <mxGeometry y="150" width="170" height="30" as="geometry" />
        </mxCell>
        <mxCell id="5X9pGxLRDHoMHx6hEtCc-28" style="edgeStyle=orthogonalEdgeStyle;rounded=0;orthogonalLoop=1;jettySize=auto;html=1;entryX=0;entryY=0.5;entryDx=0;entryDy=0;" edge="1" parent="1" source="5X9pGxLRDHoMHx6hEtCc-21" target="5X9pGxLRDHoMHx6hEtCc-24">
          <mxGeometry relative="1" as="geometry" />
        </mxCell>
        <mxCell id="5X9pGxLRDHoMHx6hEtCc-29" style="edgeStyle=orthogonalEdgeStyle;rounded=0;orthogonalLoop=1;jettySize=auto;html=1;entryX=0;entryY=0.5;entryDx=0;entryDy=0;" edge="1" parent="1" source="5X9pGxLRDHoMHx6hEtCc-21" target="5X9pGxLRDHoMHx6hEtCc-25">
          <mxGeometry relative="1" as="geometry" />
        </mxCell>
        <mxCell id="5X9pGxLRDHoMHx6hEtCc-30" style="edgeStyle=orthogonalEdgeStyle;rounded=0;orthogonalLoop=1;jettySize=auto;html=1;entryX=0;entryY=0.5;entryDx=0;entryDy=0;" edge="1" parent="1" source="5X9pGxLRDHoMHx6hEtCc-21" target="5X9pGxLRDHoMHx6hEtCc-26">
          <mxGeometry relative="1" as="geometry" />
        </mxCell>
        <mxCell id="5X9pGxLRDHoMHx6hEtCc-31" style="edgeStyle=orthogonalEdgeStyle;rounded=0;orthogonalLoop=1;jettySize=auto;html=1;entryX=0;entryY=0.5;entryDx=0;entryDy=0;" edge="1" parent="1" source="5X9pGxLRDHoMHx6hEtCc-21" target="5X9pGxLRDHoMHx6hEtCc-27">
          <mxGeometry relative="1" as="geometry" />
        </mxCell>
        <mxCell id="5X9pGxLRDHoMHx6hEtCc-21" value="자세히 보기" style="ellipse;whiteSpace=wrap;html=1;" vertex="1" parent="1">
          <mxGeometry x="640" y="80" width="130" height="60" as="geometry" />
        </mxCell>
        <mxCell id="5X9pGxLRDHoMHx6hEtCc-41" style="edgeStyle=orthogonalEdgeStyle;rounded=0;orthogonalLoop=1;jettySize=auto;html=1;entryX=0;entryY=0;entryDx=0;entryDy=52.5;entryPerimeter=0;" edge="1" parent="1" source="5X9pGxLRDHoMHx6hEtCc-24" target="5X9pGxLRDHoMHx6hEtCc-40">
          <mxGeometry relative="1" as="geometry" />
        </mxCell>
        <mxCell id="5X9pGxLRDHoMHx6hEtCc-24" value="영화평남기기" style="ellipse;whiteSpace=wrap;html=1;" vertex="1" parent="1">
          <mxGeometry x="810" y="40" width="120" height="60" as="geometry" />
        </mxCell>
        <mxCell id="5X9pGxLRDHoMHx6hEtCc-33" style="edgeStyle=orthogonalEdgeStyle;rounded=0;orthogonalLoop=1;jettySize=auto;html=1;entryX=0;entryY=0.5;entryDx=0;entryDy=0;" edge="1" parent="1" source="5X9pGxLRDHoMHx6hEtCc-25" target="5X9pGxLRDHoMHx6hEtCc-32">
          <mxGeometry relative="1" as="geometry" />
        </mxCell>
        <mxCell id="5X9pGxLRDHoMHx6hEtCc-25" value="영화예매하기" style="ellipse;whiteSpace=wrap;html=1;" vertex="1" parent="1">
          <mxGeometry x="810" y="120" width="120" height="60" as="geometry" />
        </mxCell>
        <mxCell id="5X9pGxLRDHoMHx6hEtCc-35" style="edgeStyle=orthogonalEdgeStyle;rounded=0;orthogonalLoop=1;jettySize=auto;html=1;entryX=0;entryY=0.5;entryDx=0;entryDy=0;" edge="1" parent="1" source="5X9pGxLRDHoMHx6hEtCc-26" target="5X9pGxLRDHoMHx6hEtCc-34">
          <mxGeometry relative="1" as="geometry" />
        </mxCell>
        <mxCell id="5X9pGxLRDHoMHx6hEtCc-26" value="OTT 링크 바로가기" style="ellipse;whiteSpace=wrap;html=1;" vertex="1" parent="1">
          <mxGeometry x="810" y="200" width="120" height="60" as="geometry" />
        </mxCell>
        <mxCell id="5X9pGxLRDHoMHx6hEtCc-27" value="공유하기" style="ellipse;whiteSpace=wrap;html=1;" vertex="1" parent="1">
          <mxGeometry x="810" y="280" width="120" height="60" as="geometry" />
        </mxCell>
        <mxCell id="5X9pGxLRDHoMHx6hEtCc-32" value="제휴영화관 링크" style="ellipse;whiteSpace=wrap;html=1;" vertex="1" parent="1">
          <mxGeometry x="980" y="120" width="120" height="60" as="geometry" />
        </mxCell>
        <mxCell id="5X9pGxLRDHoMHx6hEtCc-34" value="OTT 연결" style="ellipse;whiteSpace=wrap;html=1;" vertex="1" parent="1">
          <mxGeometry x="980" y="200" width="120" height="60" as="geometry" />
        </mxCell>
        <mxCell id="5X9pGxLRDHoMHx6hEtCc-36" value="공유하기" style="swimlane;fontStyle=0;childLayout=stackLayout;horizontal=1;startSize=30;horizontalStack=0;resizeParent=1;resizeParentMax=0;resizeLast=0;collapsible=1;marginBottom=0;whiteSpace=wrap;html=1;" vertex="1" parent="1">
          <mxGeometry x="940" y="290" width="140" height="120" as="geometry" />
        </mxCell>
        <mxCell id="5X9pGxLRDHoMHx6hEtCc-37" value="SNS 링크보내기" style="text;strokeColor=none;fillColor=none;align=left;verticalAlign=middle;spacingLeft=4;spacingRight=4;overflow=hidden;points=[[0,0.5],[1,0.5]];portConstraint=eastwest;rotatable=0;whiteSpace=wrap;html=1;" vertex="1" parent="5X9pGxLRDHoMHx6hEtCc-36">
          <mxGeometry y="30" width="140" height="30" as="geometry" />
        </mxCell>
        <mxCell id="5X9pGxLRDHoMHx6hEtCc-38" value="카카오 링크보내기" style="text;strokeColor=none;fillColor=none;align=left;verticalAlign=middle;spacingLeft=4;spacingRight=4;overflow=hidden;points=[[0,0.5],[1,0.5]];portConstraint=eastwest;rotatable=0;whiteSpace=wrap;html=1;" vertex="1" parent="5X9pGxLRDHoMHx6hEtCc-36">
          <mxGeometry y="60" width="140" height="30" as="geometry" />
        </mxCell>
        <mxCell id="5X9pGxLRDHoMHx6hEtCc-39" value="Face에 공유하기" style="text;strokeColor=none;fillColor=none;align=left;verticalAlign=middle;spacingLeft=4;spacingRight=4;overflow=hidden;points=[[0,0.5],[1,0.5]];portConstraint=eastwest;rotatable=0;whiteSpace=wrap;html=1;" vertex="1" parent="5X9pGxLRDHoMHx6hEtCc-36">
          <mxGeometry y="90" width="140" height="30" as="geometry" />
        </mxCell>
        <mxCell id="5X9pGxLRDHoMHx6hEtCc-40" value="" style="shape=cylinder3;whiteSpace=wrap;html=1;boundedLbl=1;backgroundOutline=1;size=15;" vertex="1" parent="1">
          <mxGeometry x="1040" y="20" width="60" height="80" as="geometry" />
        </mxCell>
      </root>
    </mxGraphModel>
  </diagram>
</mxfile>
